<svg xmlns="http://www.w3.org/2000/svg"><symbol id="space-bubbles" viewBox="0 0 200 228"><path d="M73.5 132.7h-12l-16 18.9 2.5 3.6L78.8 139l-5.3-6.3zM64 151.1h24.8l-7.5-9.1-17.3 9.1zm14.2-18.4l15.3 18.4h13.1l15.3-18.4H78.2zm-26.9-13.1h99.6v9.47H51.3zm87-3.7a42.4 42.4 0 0 0 2.2-13.8 39.4 39.4 0 0 0-78.8 0c0 4.7.3 9.6 2.2 13.8z"/><path d="M100.1 2.9l-96 55.4v110.9l96 55.4 96-55.4V58.3zm58.2 149.8l-4.1 6a2.2 2.2 0 0 1-2.4.6l-8.8-4.6H56.9l-8.7 4.6a2.2 2.2 0 0 1-2.4-.6l-4.2-6a2.2 2.2 0 0 1 .2-2.2l15.1-17.8h-7.4a1.7 1.7 0 0 1-1.8-1.8v-13.2a1.7 1.7 0 0 1 1.8-1.8H60a53.5 53.5 0 0 1-2-13.8 43.1 43.1 0 1 1 84.1 13.8h10.6a1.7 1.7 0 0 1 1.8 1.8v13.2a1.7 1.7 0 0 1-1.8 1.8h-9.3l14.9 17.8a1.8 1.8 0 0 1 0 2.2z"/><path d="M111.4 151.1h24.7l-17.3-9.1-7.4 9.1zm15.3-18.4l-5.5 6.3 31 16.2 2.5-3.4-16-19.1h-12z"/></symbol><symbol id="mecha-stilts" viewBox="0 0 200 228"><path d="M72.4 139.6h18.2v11.47H72.4zm21.9 0H106v11.47H94.3zm5.8-75.9c-21.3 0-39.2 12.9-40.1 36.4h80.1c-.9-23.5-18.7-36.4-40-36.4zm-43 75.9h11.7v11.47H57.1zm52.5 0h18.2v11.47h-18.2zM46.2 136H154v-32.3H46.2zm53-12.4h44.4a1.8 1.8 0 1 1 0 3.6H99.2a1.8 1.8 0 1 1 0-3.6z"/><path d="M100.1 2.9l-96 55.4v110.9l96 55.4 96-55.4V58.3zm57.5 134.9a1.7 1.7 0 0 1-1.8 1.8h-9.1v11.5h9.1a1.8 1.8 0 0 1 0 3.6H44.4a1.8 1.8 0 0 1 0-3.6h9.1v-11.5h-9.1a1.7 1.7 0 0 1-1.8-1.8v-35.9a1.7 1.7 0 0 1 1.8-1.8h12C57.3 74.2 76.6 60 100.1 60s42.8 14.2 43.7 40.1h12a1.7 1.7 0 0 1 1.8 1.8z"/><path d="M131.4 139.6h11.7v11.47h-11.7z"/></symbol><symbol id="super-domes" viewBox="0 0 200 228"><path d="M98.3 113.6V76.8L72 113.6h26.3zm-49 17.3h49v20.21h-49zM101.9 73v40.6h50.3A54.2 54.2 0 0 0 101.9 73zm0 57.9h8.2v20.21h-8.2zm-5.5-57.8C73.1 74.6 53.7 91.5 48 113.6h19.5zm17.3 57.8h37.1v20.21h-37.1z"/><path d="M100.1 2.9l-96 55.4v110.9l96 55.4 96-55.4V58.3zm78.5 128h-24.1v22a1.7 1.7 0 0 1-1.8 1.8H47.5a1.7 1.7 0 0 1-1.8-1.8v-22H21.6a2 2 0 0 1-1.8-1.9 1.9 1.9 0 0 1 1.8-1.8h13.7v-11.8a1.7 1.7 0 0 1 1.8-1.8h7.1a57.8 57.8 0 0 1 55.7-44.3c.2-.2.4-.2.7 0a57.5 57.5 0 0 1 55.4 44.3h7.1a1.7 1.7 0 0 1 1.8 1.8v11.8h13.7a1.9 1.9 0 0 1 1.8 1.8 2 2 0 0 1-1.8 1.9z"/><path d="M38.9 117.2h122.3v10.01H38.9z"/></symbol></svg>